<?xml version="1.0" standalone="no"?>
<!DOCTYPE svg PUBLIC "-//W3C//DTD SVG 20010904//EN"
 "http://www.w3.org/TR/2001/REC-SVG-20010904/DTD/svg10.dtd">
<svg version="1.0" xmlns="http://www.w3.org/2000/svg"
 width="1024.000000pt" height="1024.000000pt" viewBox="0 0 1024.000000 1024.000000"
 preserveAspectRatio="xMidYMid meet">
<metadata>
Created by potrace 1.11, written by Peter Selinger 2001-2013
</metadata>
<g transform="translate(0.000000,1024.000000) scale(0.100000,-0.100000)"
fill="#000000" stroke="none">
<path d="M0 4680 l0 -2980 5120 0 5120 0 0 2805 c0 2284 -2 2805 -13 2805 -7
0 -54 -13 -105 -30 -51 -16 -105 -30 -120 -30 -15 0 -46 -9 -67 -20 -32 -17
-56 -20 -120 -19 -44 1 -90 6 -103 11 -12 4 -60 8 -105 9 -45 1 -89 5 -97 10
-25 12 -110 18 -110 8 0 -6 -5 -7 -12 -3 -7 4 -26 9 -43 11 -29 3 -54 12 -107
39 -14 8 -31 14 -37 14 -7 0 -24 9 -39 19 -15 11 -41 22 -59 26 -29 6 -31 4
-26 -16 6 -20 4 -21 -33 -15 -46 8 -102 25 -126 37 -10 5 -28 9 -42 9 -13 0
-29 6 -35 14 -6 7 -39 21 -73 31 -34 9 -69 20 -77 23 -14 5 -14 3 -3 -11 12
-14 10 -15 -25 -10 -21 3 -45 7 -53 7 -8 1 -18 5 -21 10 -4 4 -17 2 -30 -4
-16 -9 -52 -11 -118 -7 -66 4 -104 2 -126 -7 -17 -7 -52 -16 -77 -20 -26 -4
-50 -11 -53 -16 -3 -4 -14 -6 -25 -3 -11 3 -32 -4 -50 -17 -16 -12 -30 -17
-30 -12 0 5 -20 9 -45 9 -25 0 -45 -4 -45 -9 0 -13 -28 -9 -33 5 -4 8 -8 9
-14 1 -13 -17 -42 -24 -49 -12 -4 7 -9 6 -15 -3 -8 -12 -10 -12 -18 0 -5 8
-11 10 -15 3 -4 -6 -28 -10 -54 -8 -42 2 -179 -17 -189 -27 -2 -3 63 -3 144
-2 244 4 465 -12 296 -22 -31 -2 -61 -7 -67 -12 -6 -5 -30 -12 -53 -16 -23 -3
-47 -13 -54 -21 -6 -8 -25 -14 -41 -14 -35 0 -81 -41 -72 -64 4 -10 1 -16 -9
-16 -25 0 -47 11 -41 21 3 5 -2 9 -10 9 -10 0 -13 -6 -10 -17 5 -17 5 -17 -9
0 -15 18 -33 24 -22 7 8 -12 -33 -53 -45 -45 -6 4 -10 12 -10 19 0 17 -42 29
-51 14 -4 -7 -10 -5 -15 5 -6 10 -34 17 -89 21 -43 4 -82 10 -85 14 -3 4 -30
7 -60 7 -30 0 -64 4 -75 9 -29 12 -78 14 -92 3 -9 -6 -13 -5 -13 3 0 7 -10 10
-27 6 -16 -4 -40 0 -55 8 -15 8 -36 12 -47 9 -12 -3 -29 -2 -38 2 -16 6 -14 8
10 21 31 17 33 26 12 44 -11 9 -15 9 -15 1 0 -7 -16 -11 -42 -10 -24 1 -74 -4
-113 -11 -38 -7 -92 -16 -120 -20 l-50 -7 45 -2 c98 -5 173 -2 181 6 13 13 69
3 69 -12 0 -20 -27 -39 -33 -23 -3 9 -9 8 -19 -6 -10 -13 -21 -17 -33 -12 -10
3 -24 1 -31 -5 -8 -6 -32 -11 -53 -11 -25 1 -41 -4 -45 -14 -6 -16 -76 -20
-76 -4 0 5 -7 7 -15 4 -8 -4 -22 -1 -30 6 -11 9 -18 10 -29 1 -10 -8 -20 -8
-42 4 -16 8 -38 15 -49 15 -11 0 -26 4 -34 9 -19 12 24 35 64 33 22 -1 25 1
12 6 -10 4 -19 12 -20 17 -3 13 -188 13 -193 0 -6 -14 -117 -16 -126 -2 -4 6
-34 17 -68 23 -33 7 -80 22 -103 32 -35 16 -85 39 -107 48 -3 1 -15 5 -27 9
-13 4 -23 12 -23 17 0 5 -4 7 -9 4 -5 -3 -35 3 -68 14 -32 10 -80 21 -106 23
-26 2 -50 7 -54 11 -3 3 -17 6 -30 6 -12 0 -23 5 -23 11 0 8 -4 8 -13 1 -8 -7
-18 -6 -31 4 -11 8 -29 14 -40 14 -12 0 -34 7 -50 15 -47 25 -150 -4 -131 -36
9 -13 -59 -11 -89 2 -20 10 -33 7 -78 -15 -66 -34 -90 -48 -103 -62 -5 -6 -19
-14 -30 -18 -14 -5 -10 3 15 28 19 19 40 36 47 36 7 0 17 9 23 20 10 18 8 20
-29 20 -22 0 -43 -4 -46 -10 -3 -5 -18 -10 -33 -11 -24 0 -25 -1 -7 -9 18 -7
19 -8 3 -15 -10 -4 -25 -4 -34 -1 -24 9 -94 -44 -94 -71 0 -19 -6 -23 -30 -23
-16 0 -30 -3 -30 -8 0 -4 -10 -12 -22 -17 -13 -6 -24 -20 -26 -33 -3 -19 -6
-21 -18 -11 -12 10 -23 10 -52 -1 -20 -7 -58 -13 -84 -13 -35 1 -48 -3 -48
-13 0 -16 -9 -17 -29 -5 -20 13 -41 -11 -41 -48 0 -21 -5 -31 -15 -31 -19 0
-19 -19 0 -26 22 -9 18 -34 -5 -34 -11 0 -20 -5 -20 -11 0 -7 7 -8 18 -4 9 4
29 12 45 17 31 11 34 20 12 38 -8 7 -15 18 -15 26 0 14 105 48 125 40 7 -2 18
1 24 7 6 6 11 7 11 2 0 -4 9 0 20 10 16 14 23 16 32 7 9 -9 6 -18 -14 -39 -14
-16 -28 -35 -31 -43 -4 -12 -6 -11 -6 3 -1 10 -9 17 -22 17 -17 0 -19 -3 -10
-13 8 -10 6 -19 -10 -35 -11 -12 -24 -22 -29 -22 -6 0 -10 -6 -10 -13 0 -9 12
-11 41 -9 23 3 37 7 31 11 -6 4 -7 12 -3 20 6 9 11 10 15 2 4 -6 24 -8 54 -4
26 3 43 2 39 -3 -10 -10 -126 -42 -192 -53 l-50 -7 45 -8 c35 -6 60 -3 110 15
36 12 70 25 75 29 6 4 26 10 45 13 19 3 46 8 59 12 23 8 23 8 5 -14 -10 -11
-28 -21 -40 -21 -13 0 -37 -12 -55 -27 -18 -16 -29 -22 -25 -15 16 27 -136
-12 -213 -54 -46 -26 -71 -30 -71 -14 0 6 5 10 12 10 6 0 9 3 6 6 -3 3 -23 -3
-44 -12 -28 -12 -34 -18 -21 -21 24 -6 21 -20 -5 -26 -12 -4 -19 -10 -15 -14
9 -8 -87 -44 -106 -39 -7 1 -9 1 -5 -1 13 -8 9 -23 -6 -23 -7 0 -16 9 -19 21
-7 25 -31 20 -33 -7 -1 -10 -2 -25 -3 -31 -1 -7 -6 -13 -12 -13 -5 0 -7 5 -4
10 8 14 2 13 -45 -6 -23 -9 -44 -14 -47 -10 -3 3 -12 1 -18 -4 -15 -13 -61
-15 -95 -5 -17 4 -21 4 -12 -3 11 -8 11 -10 0 -14 -7 -3 -18 0 -24 6 -9 9 10
23 77 56 90 43 109 57 65 46 -15 -4 -26 -1 -29 7 -3 8 -11 4 -26 -12 -11 -13
-21 -19 -21 -12 0 7 -7 19 -15 28 -22 21 -1 43 39 42 30 -2 30 -2 4 -6 -16 -2
-28 -8 -28 -12 0 -12 43 -7 70 9 14 7 36 20 50 28 l25 14 -30 -6 c-52 -11 -68
-11 -72 -1 -2 6 11 15 29 20 39 12 60 41 38 55 -19 12 -30 13 -30 1 0 -5 8
-11 18 -14 9 -2 -28 -4 -83 -3 -84 0 -105 -4 -133 -21 -19 -11 -42 -18 -53
-16 -10 3 -19 0 -19 -6 0 -5 -6 -8 -13 -5 -8 3 -19 -2 -26 -10 -7 -8 -37 -18
-67 -22 -30 -3 -57 -10 -60 -15 -3 -5 -16 -9 -29 -9 -24 0 -42 -16 -31 -27 8
-8 103 -22 193 -28 56 -3 71 -2 67 8 -5 14 60 42 76 32 5 -3 10 -1 10 4 0 6 5
11 11 11 11 0 9 -16 -6 -52 -5 -13 -2 -18 9 -18 9 0 16 5 16 10 0 6 7 10 15
10 8 0 15 -4 15 -9 0 -12 -57 -34 -69 -27 -6 4 -16 -2 -23 -14 -15 -23 -40
-27 -32 -5 8 21 -13 19 -37 -4 -31 -29 -77 -33 -139 -11 -52 18 -54 19 -30 28
21 8 15 10 -35 11 -92 0 -138 8 -191 30 -66 27 -182 47 -344 61 -133 12 -170
22 -140 40 8 5 11 12 8 16 -4 4 -19 -1 -32 -10 -16 -10 -27 -12 -31 -6 -4 6
-13 7 -22 1 -9 -4 -32 -5 -52 0 -20 4 -74 10 -121 14 -137 9 -194 16 -183 23
5 4 14 21 20 37 7 24 16 30 39 32 20 1 22 0 7 -4 -13 -2 -23 -11 -23 -19 0
-10 14 -14 58 -14 72 0 133 10 127 21 -11 17 14 18 31 2 10 -10 28 -16 42 -14
17 2 23 -1 20 -11 -6 -18 -56 -22 -74 -7 -13 10 -17 10 -24 0 -4 -8 -13 -10
-20 -6 -9 5 -11 4 -6 -3 5 -8 -4 -12 -26 -13 -29 -2 -30 -2 -6 -6 15 -2 36 1
47 7 22 11 74 3 66 -10 -3 -4 14 -10 38 -12 23 -2 44 -1 45 4 2 4 11 8 19 8
16 0 53 36 53 52 0 4 5 8 11 8 6 0 27 14 46 30 26 24 43 30 78 30 51 0 62 -11
33 -31 -12 -8 -33 -27 -47 -43 -14 -16 -34 -36 -43 -45 -21 -18 -24 -32 -5
-26 6 3 31 -1 54 -8 53 -16 203 -1 203 20 0 7 5 13 10 13 6 0 10 6 9 13 -2 6
8 29 20 50 23 36 34 41 96 40 11 0 25 6 32 13 7 7 43 15 80 18 38 4 82 11 98
18 17 6 39 10 50 9 163 -13 242 -12 254 3 8 10 29 16 52 16 38 0 39 1 39 34 0
19 5 36 12 38 7 3 5 13 -7 31 l-17 27 28 0 c27 1 26 2 -10 15 -34 12 -42 12
-59 0 -18 -12 -23 -12 -45 5 -28 22 -58 26 -64 8 -3 -7 -10 -8 -17 -4 -11 7
-11 10 0 18 10 7 8 8 -6 3 -11 -4 -39 -8 -63 -9 -33 -2 -42 1 -37 11 4 11 -1
13 -17 7 -17 -5 -20 -3 -15 10 4 9 2 16 -3 16 -6 0 -10 -8 -10 -17 -1 -17 -1
-17 -14 0 -13 17 -15 17 -33 -7 -14 -17 -24 -22 -31 -15 -7 5 -10 6 -7 2 3 -3
-5 -13 -17 -21 -19 -14 -22 -13 -33 1 -9 13 -14 14 -25 4 -7 -7 -11 -7 -8 -2
3 6 1 19 -3 30 -9 19 -9 18 -5 -2 2 -12 -2 -28 -10 -34 -12 -10 -17 -8 -28 7
-8 10 -12 26 -11 36 4 20 -20 25 -31 6 -4 -7 -3 -8 4 -4 16 10 15 -11 0 -21
-19 -12 -87 -12 -94 -1 -4 6 -10 5 -15 -3 -8 -12 -10 -12 -18 0 -6 9 -15 11
-27 6 -35 -16 -52 -13 -47 6 3 11 1 19 -5 19 -5 0 -12 -9 -15 -20 -3 -11 -11
-20 -17 -20 -7 0 -10 8 -7 20 4 15 0 20 -13 20 -11 0 -24 8 -29 18 -8 13 -12
14 -19 4 -9 -14 -62 -7 -62 8 0 4 -12 6 -27 3 -22 -2 -24 -2 -9 5 18 8 18 9 2
15 -10 4 -25 7 -34 7 -15 0 -15 -2 -2 -10 27 -17 -2 -33 -32 -17 -23 12 -24
14 -10 24 14 9 12 10 -10 6 -15 -3 -26 -9 -23 -13 3 -5 -3 -6 -14 -3 -10 3
-22 0 -25 -6 -4 -6 -16 -11 -26 -11 -11 0 -27 -12 -37 -26 -14 -22 -18 -24
-23 -10 -5 16 -8 15 -32 -3 -14 -12 -31 -21 -37 -21 -23 0 -121 35 -121 43 0
5 -7 3 -17 -4 -13 -11 -17 -11 -20 -1 -3 6 -9 12 -14 12 -5 0 -4 -11 1 -26 7
-16 7 -23 0 -19 -6 3 -10 2 -10 -3 0 -6 -11 -9 -24 -8 -13 0 -22 4 -19 9 2 4
-3 7 -11 7 -9 0 -16 4 -16 9 0 4 -12 8 -27 8 -24 -1 -157 17 -203 27 -8 2 -28
8 -45 15 -37 15 -117 31 -127 25 -4 -3 -23 2 -42 10 -31 13 -99 18 -245 16
-18 0 -49 4 -68 9 -23 7 -42 6 -58 -1 -18 -8 -33 -7 -62 5 -21 8 -81 17 -133
21 -144 8 -637 29 -677 28 -13 0 -23 3 -23 7 0 3 -12 6 -27 6 -30 1 -151 13
-193 20 -14 2 -41 7 -60 10 -19 2 -57 9 -83 15 -26 5 -73 10 -103 10 -30 0
-67 6 -82 14 -26 13 -120 38 -189 50 l-33 6 0 -2980z m8393 2733 c-7 -2 -19
-2 -25 0 -7 3 -2 5 12 5 14 0 19 -2 13 -5z m-3503 -65 c0 -18 -2 -20 -9 -8 -6
8 -7 18 -5 22 9 14 14 9 14 -14z m-1220 3 c0 -5 -7 -11 -14 -14 -10 -4 -13 -1
-9 9 6 15 23 19 23 5z m-6 -82 c-35 -39 -40 -7 -5 35 15 17 16 17 19 1 2 -9
-4 -25 -14 -36z m2079 34 c-13 -2 -33 -2 -45 0 -13 2 -3 4 22 4 25 0 35 -2 23
-4z m-1823 -33 c0 -5 -9 -6 -20 -3 -11 3 -20 9 -20 13 0 5 9 6 20 3 11 -3 20
-9 20 -13z m1934 0 c47 -21 62 -50 26 -50 -14 0 -20 7 -20 21 0 19 -4 21 -40
15 -24 -4 -47 -2 -58 5 -21 13 -76 4 -67 -10 3 -5 -28 -9 -67 -8 -40 1 -86 -2
-103 -6 -21 -5 -25 -4 -14 2 22 14 161 38 280 49 9 1 37 -7 63 -18z m-97 -16
c-3 -3 -12 -4 -19 -1 -8 3 -5 6 6 6 11 1 17 -2 13 -5z m2766 -1 c-24 -2 -43
-9 -43 -14 0 -6 -5 -7 -11 -3 -19 11 12 24 56 22 l40 -1 -42 -4z m-4796 -25
c-3 -8 -6 -5 -6 6 -1 11 2 17 5 13 3 -3 4 -12 1 -19z m2113 2 c0 -11 -2 -20
-5 -20 -2 0 -9 9 -15 20 -9 16 -8 20 5 20 8 0 15 -9 15 -20z m-1940 -6 c0 -8
-5 -12 -10 -9 -6 4 -8 11 -5 16 9 14 15 11 15 -7z m735 6 c-3 -5 -10 -10 -16
-10 -5 0 -9 5 -9 10 0 6 7 10 16 10 8 0 12 -4 9 -10z m854 -4 c-2 -2 -22 -6
-44 -9 -28 -5 -34 -4 -20 3 19 8 73 14 64 6z m476 -16 c3 -5 1 -10 -4 -10 -6
0 -11 5 -11 10 0 6 2 10 4 10 3 0 8 -4 11 -10z m-615 -12 c-68 -19 -177 -34
-196 -27 -14 6 -8 8 21 9 22 1 63 8 90 15 28 7 66 13 85 13 l35 0 -35 -10z
m-850 -8 c0 -5 -4 -10 -10 -10 -5 0 -10 5 -10 10 0 6 5 10 10 10 6 0 10 -4 10
-10z m350 -5 c0 -8 -9 -15 -19 -15 -24 0 -36 16 -19 23 24 10 38 7 38 -8z
m1211 -6 c11 -5 17 -14 14 -19 -3 -4 3 -6 12 -4 17 4 61 -22 52 -30 -2 -2 -35
-6 -73 -9 -62 -6 -67 -5 -50 8 17 13 15 14 -26 15 -33 0 -41 3 -30 10 8 6 29
7 45 4 29 -6 29 -5 10 10 -19 15 -19 15 5 10 20 -5 22 -3 10 5 -20 14 4 15 31
0z m-947 -18 c3 -5 -45 -21 -107 -36 -61 -14 -121 -29 -132 -31 -47 -12 13 16
75 35 139 42 156 46 164 32z m2001 -16 c33 -8 90 -17 127 -20 51 -6 65 -10 61
-21 -3 -8 -12 -14 -20 -14 -8 0 -12 4 -9 9 5 8 -145 28 -167 23 -4 -1 -76 -4
-159 -6 -84 -3 -154 -9 -156 -14 -2 -6 -12 -8 -22 -5 -11 3 -20 0 -20 -6 0 -6
-9 -11 -21 -11 -11 0 -29 -5 -39 -10 -15 -8 -18 -7 -14 4 6 15 151 75 212 87
45 9 145 2 227 -16z m1165 21 c0 -2 -11 -6 -25 -8 -14 -3 -25 -1 -25 3 0 5 11
9 25 9 14 0 25 -2 25 -4z m-70 -35 c0 -6 -19 -9 -42 -9 -32 1 -38 3 -23 9 28
11 65 11 65 0z m-90 -11 c0 -5 -9 -10 -20 -10 -11 0 -20 5 -20 10 0 6 9 10 20
10 11 0 20 -4 20 -10z m-1454 -15 c-15 -8 -33 -15 -39 -15 -7 0 -50 -18 -97
-39 -47 -22 -111 -47 -142 -55 -32 -9 -82 -23 -110 -31 -61 -16 -116 -21 -140
-11 -9 4 -26 2 -38 -4 -12 -6 -24 -9 -27 -6 -8 8 117 66 141 66 13 0 17 3 10
10 -6 6 -24 4 -49 -5 -22 -8 -48 -14 -59 -15 -10 0 -58 -18 -107 -39 -49 -22
-89 -37 -89 -33 0 4 -4 2 -8 -4 -4 -6 -29 -13 -57 -16 -27 -2 -42 -3 -32 -1 9
3 15 8 12 12 -2 5 7 6 22 3 16 -3 24 -1 20 5 -7 11 52 33 93 36 29 2 55 23 40
32 -5 3 -10 1 -10 -4 0 -6 -13 -11 -30 -11 -31 0 -36 6 -21 29 5 8 18 12 31 8
30 -8 70 12 70 35 0 10 -4 18 -10 18 -5 0 -10 5 -10 10 0 6 9 10 21 10 11 0
18 -4 15 -9 -3 -5 14 -6 38 -4 24 3 53 0 65 -6 16 -9 21 -9 21 1 0 8 5 6 11
-4 5 -10 16 -18 24 -18 7 0 15 -5 17 -12 4 -10 25 -9 97 1 51 7 95 10 98 7 4
-3 -2 -6 -13 -6 -10 -1 -35 -10 -54 -21 l-35 -20 39 6 c22 4 49 13 60 21 11 8
28 14 38 14 9 0 20 5 23 10 4 7 -3 9 -22 5 l-28 -5 25 11 c27 13 186 57 210
58 8 0 2 -6 -14 -14z m1389 0 c-11 -8 -24 -18 -30 -22 -11 -9 -143 -9 -151 0
-3 3 17 8 43 12 27 3 55 10 63 16 8 5 33 9 55 9 37 -1 39 -2 20 -15z m-5140
-5 c3 -5 1 -10 -4 -10 -6 0 -11 5 -11 10 0 6 2 10 4 10 3 0 8 -4 11 -10z
m4473 3 c-10 -2 -26 -2 -35 0 -10 3 -2 5 17 5 19 0 27 -2 18 -5z m-4521 -9
c-3 -3 -12 -4 -19 -1 -8 3 -5 6 6 6 11 1 17 -2 13 -5z m4570 0 c-3 -3 -12 -4
-19 -1 -8 3 -5 6 6 6 11 1 17 -2 13 -5z m-4610 -10 c-3 -3 -12 -4 -19 -1 -8 3
-5 6 6 6 11 1 17 -2 13 -5z m4560 0 c-3 -3 -12 -4 -19 -1 -8 3 -5 6 6 6 11 1
17 -2 13 -5z m453 -34 c0 -5 -6 -10 -14 -10 -8 0 -18 5 -21 10 -3 6 3 10 14
10 12 0 21 -4 21 -10z m60 -10 c0 -5 -9 -10 -21 -10 -11 0 -17 5 -14 10 3 6
13 10 21 10 8 0 14 -4 14 -10z m-5010 -40 c-8 -5 -22 -10 -30 -10 -13 0 -13 1
0 10 8 5 22 10 30 10 13 0 13 -1 0 -10z m1130 -10 c0 -5 -4 -10 -10 -10 -5 0
-10 5 -10 10 0 6 5 10 10 10 6 0 10 -4 10 -10z m3400 -20 c-14 -10 -27 -16
-30 -13 -6 6 30 33 44 33 6 0 0 -9 -14 -20z m-3453 -36 c2 -6 -14 -11 -34 -11
-37 -1 -37 -1 -13 13 27 14 42 14 47 -2z m2853 -28 c0 -3 -4 -8 -10 -11 -5 -3
-10 -1 -10 4 0 6 5 11 10 11 6 0 10 -2 10 -4z m-1497 -13 c-7 -2 -21 -2 -30 0
-10 3 -4 5 12 5 17 0 24 -2 18 -5z m1447 -3 c-20 -13 -33 -13 -25 0 3 6 14 10
23 10 15 0 15 -2 2 -10z m-1527 -7 c-7 -2 -21 -2 -30 0 -10 3 -4 5 12 5 17 0
24 -2 18 -5z m-78 -22 c-6 -4 -32 -11 -60 -14 l-50 -5 40 13 c47 16 83 19 70
6z m1385 -31 c-19 -10 -66 -24 -105 -30 -38 -7 -83 -18 -100 -25 -16 -7 -50
-18 -75 -25 -47 -13 -136 -39 -157 -45 -7 -3 -13 0 -13 5 0 5 26 14 58 22 35
7 49 14 37 17 -14 3 -7 8 25 17 25 7 70 20 100 30 30 9 74 19 98 21 23 3 42 9
42 13 0 9 35 16 90 18 l35 1 -35 -19z m-1544 -15 c-11 -8 -25 -15 -30 -15 -6
0 -2 7 8 15 11 8 25 15 30 15 6 0 2 -7 -8 -15z m-151 -25 c-22 -11 -47 -19
-57 -20 -9 0 -18 -5 -20 -12 -3 -7 -11 -9 -24 -4 -15 6 -6 13 46 31 80 28 109
31 55 5z m108 3 c3 -5 -6 -9 -20 -10 -19 -1 -22 1 -12 8 17 11 26 11 32 2z
m-360 -20 c9 -3 17 0 17 6 0 6 11 11 25 11 16 0 25 -6 25 -16 0 -15 -21 -16
-150 -3 -8 0 -4 5 10 9 14 4 32 6 40 3 8 -3 23 -8 33 -10z m122 7 c3 -5 1 -10
-4 -10 -6 0 -11 5 -11 10 0 6 2 10 4 10 3 0 8 -4 11 -10z m-352 -7 c-7 -2 -19
-2 -25 0 -7 3 -2 5 12 5 14 0 19 -2 13 -5z m1792 -13 c-3 -5 -14 -10 -23 -9
-14 0 -13 2 3 9 27 11 27 11 20 0z m-90 -70 c-11 -5 -27 -9 -35 -9 -9 0 -8 4
5 9 11 5 27 9 35 9 9 0 8 -4 -5 -9z m-55 -14 c0 -2 -7 -7 -16 -10 -8 -3 -12
-2 -9 4 6 10 25 14 25 6z m503 -283 c-7 -2 -19 -2 -25 0 -7 3 -2 5 12 5 14 0
19 -2 13 -5z m-1600 -250 c-13 -2 -33 -2 -45 0 -13 2 -3 4 22 4 25 0 35 -2 23
-4z m-4133 -687 c0 -3 -4 -8 -10 -11 -5 -3 -10 -1 -10 4 0 6 5 11 10 11 6 0
10 -2 10 -4z m1570 -456 c-20 -13 -33 -13 -25 0 3 6 14 10 23 10 15 0 15 -2 2
-10z m-1975 -60 c-3 -5 -13 -10 -21 -10 -8 0 -12 5 -9 10 3 6 13 10 21 10 8 0
12 -4 9 -10z m435 -40 c0 -5 -12 -10 -26 -10 -14 0 -23 4 -19 10 3 6 15 10 26
10 10 0 19 -4 19 -10z m8967 4 c-3 -3 -12 -4 -19 -1 -8 3 -5 6 6 6 11 1 17 -2
13 -5z m-6257 -30 c0 -2 -7 -4 -15 -4 -8 0 -15 4 -15 10 0 5 7 7 15 4 8 -4 15
-8 15 -10z m590 -9 c0 -8 -2 -15 -4 -15 -2 0 -6 7 -10 15 -3 8 -1 15 4 15 6 0
10 -7 10 -15z m-2895 -105 c-3 -5 -11 -10 -16 -10 -6 0 -7 5 -4 10 3 6 11 10
16 10 6 0 7 -4 4 -10z m3725 -267 c0 -2 -10 -7 -22 -12 -26 -10 -47 -3 -27 9
12 8 49 10 49 3z m3047 -105 c-3 -8 -6 -5 -6 6 -1 11 2 17 5 13 3 -3 4 -12 1
-19z m-7877 -38 c0 -5 -4 -10 -10 -10 -5 0 -10 5 -10 10 0 6 5 10 10 10 6 0
10 -4 10 -10z m30 0 c0 -5 -4 -10 -10 -10 -5 0 -10 5 -10 10 0 6 5 10 10 10 6
0 10 -4 10 -10z m1335 -20 c-3 -5 -12 -10 -18 -10 -7 0 -6 4 3 10 19 12 23 12
15 0z m-30 -70 c-3 -5 -13 -6 -21 -3 -12 4 -13 8 -3 14 15 9 32 2 24 -11z
m3075 0 c0 -5 -8 -10 -17 -10 -15 0 -16 2 -3 10 19 12 20 12 20 0z m-1072 -48
c2 -7 -3 -12 -12 -12 -9 0 -16 7 -16 16 0 17 22 14 28 -4z m-411 -17 c0 -8 -4
-12 -9 -9 -5 3 -6 10 -3 15 9 13 12 11 12 -6z m-2413 -17 c-5 -7 10 -12 29 -9
9 1 9 -3 1 -23 -4 -9 -17 -16 -33 -15 l-26 0 25 11 25 10 -28 12 c-28 12 -29
23 -2 23 8 0 12 -4 9 -9z m2029 -23 c-3 -9 -8 -14 -10 -11 -3 3 -2 9 2 15 9
16 15 13 8 -4z m2070 -10 c-3 -9 -8 -14 -10 -11 -3 3 -2 9 2 15 9 16 15 13 8
-4z m-1408 -35 c3 -6 -1 -7 -9 -4 -18 7 -21 14 -7 14 6 0 13 -4 16 -10z m1375
-10 c-6 -11 -13 -20 -16 -20 -2 0 0 9 6 20 6 11 13 20 16 20 2 0 0 -9 -6 -20z
m2705 13 c-11 -3 -23 -10 -26 -15 -3 -5 -9 -3 -12 6 -5 13 0 16 26 15 21 -1
25 -3 12 -6z m-5969 -19 c19 -15 19 -15 -1 -6 -11 5 -27 12 -35 15 -13 5 -13
6 1 6 8 1 24 -6 35 -15z m6019 -34 c-3 -5 -10 -10 -16 -10 -5 0 -9 5 -9 10 0
6 7 10 16 10 8 0 12 -4 9 -10z m-4522 -34 c4 -10 1 -13 -8 -9 -8 3 -12 9 -9
14 7 12 11 11 17 -5z m2547 -6 c12 -1 11 -3 -2 -11 -12 -7 -24 -6 -38 1 -27
14 -25 24 3 16 12 -3 29 -6 37 -6z m2080 -11 c0 -6 -4 -7 -10 -4 -5 3 -10 11
-10 16 0 6 5 7 10 4 6 -3 10 -11 10 -16z m73 14 c-7 -2 -19 -2 -25 0 -7 3 -2
5 12 5 14 0 19 -2 13 -5z m-1879 -32 c3 -4 -6 -6 -19 -3 -14 2 -25 6 -25 8 0
8 39 4 44 -5z m1453 -17 c-3 -3 -12 -4 -19 -1 -8 3 -5 6 6 6 11 1 17 -2 13 -5z
m-1432 -54 c3 -6 -1 -7 -9 -4 -18 7 -21 14 -7 14 6 0 13 -4 16 -10z m1862 -15
c0 -8 -6 -15 -13 -15 -15 0 -26 15 -17 24 12 11 30 6 30 -9z m-551 -44 c-4 -6
-15 -10 -24 -10 -16 1 -16 2 0 6 11 3 15 10 11 21 -5 13 -3 14 7 5 7 -6 9 -16
6 -22z m-2206 -71 c0 -5 -2 -10 -4 -10 -3 0 -8 5 -11 10 -3 6 -1 10 4 10 6 0
11 -4 11 -10z m676 -36 c17 -14 17 -15 1 -10 -10 3 -23 6 -28 6 -5 0 -9 5 -9
10 0 14 13 12 36 -6z m74 12 c0 -3 -4 -8 -10 -11 -5 -3 -10 -1 -10 4 0 6 5 11
10 11 6 0 10 -2 10 -4z m1540 -136 c0 -5 -2 -10 -4 -10 -3 0 -8 5 -11 10 -3 6
-1 10 4 10 6 0 11 -4 11 -10z m-2700 -20 c0 -5 -5 -10 -11 -10 -5 0 -7 5 -4
10 3 6 8 10 11 10 2 0 4 -4 4 -10z m-110 -106 c0 -2 -11 -4 -25 -4 -14 0 -25
4 -25 9 0 4 11 6 25 3 14 -2 25 -6 25 -8z m1690 -10 c0 -8 -4 -12 -10 -9 -5 3
-10 10 -10 16 0 5 5 9 10 9 6 0 10 -7 10 -16z m-1080 -184 c0 -5 -6 -10 -14
-10 -8 0 -18 5 -21 10 -3 6 3 10 14 10 12 0 21 -4 21 -10z m3845 -20 c3 -5 2
-10 -4 -10 -5 0 -13 5 -16 10 -3 6 -2 10 4 10 5 0 13 -4 16 -10z m-3760 -10
c3 -5 2 -10 -4 -10 -5 0 -13 5 -16 10 -3 6 -2 10 4 10 5 0 13 -4 16 -10z
m1246 -123 c-10 -9 -11 -8 -5 6 3 10 9 15 12 12 3 -3 0 -11 -7 -18z m-367 -26
c-2 -3 -12 3 -22 13 -16 17 -16 18 5 5 12 -7 20 -15 17 -18z m641 -81 c7 -12
-2 -12 -30 0 -19 8 -19 9 2 9 12 1 25 -3 28 -9z m195 0 c0 -5 -4 -10 -9 -10
-6 0 -13 5 -16 10 -3 6 1 10 9 10 9 0 16 -4 16 -10z m-149 -39 c-7 -13 -17
-18 -27 -14 -14 5 -13 9 7 25 21 16 21 17 4 12 -16 -5 -17 -4 -5 5 21 14 34
-3 21 -28z m107 21 c2 -7 -2 -10 -12 -6 -9 3 -16 11 -16 16 0 13 23 5 28 -10z
m1962 -22 c0 -5 -7 -10 -16 -10 -8 0 -12 5 -9 10 3 6 10 10 16 10 5 0 9 -4 9
-10z m-90 -60 c0 -5 -2 -10 -4 -10 -3 0 -8 5 -11 10 -3 6 -1 10 4 10 6 0 11
-4 11 -10z m-2122 -7 c-10 -2 -18 -9 -18 -15 0 -6 -3 -9 -6 -5 -10 10 6 27 24
26 15 -1 15 -2 0 -6z m89 -105 c-3 -8 -6 -5 -6 6 -1 11 2 17 5 13 3 -3 4 -12
1 -19z m-87 8 c0 -3 -4 -8 -10 -11 -5 -3 -10 -1 -10 4 0 6 5 11 10 11 6 0 10
-2 10 -4z m310 -14 c0 -5 -13 -7 -30 -4 -16 2 -30 6 -30 8 0 2 14 4 30 4 17 0
30 -4 30 -8z m-120 -42 c15 -16 25 -30 22 -30 -13 1 -57 29 -47 30 6 0 1 7 -9
15 -12 9 -14 15 -7 15 7 0 26 -13 41 -30z m277 -72 c18 -20 18 -21 -7 -13 -14
4 -26 11 -28 14 -1 4 -18 5 -37 3 -22 -3 -35 0 -35 7 0 7 4 10 9 6 5 -3 12 -2
15 3 9 15 64 1 83 -20z m53 -52 c0 -2 -7 -9 -15 -16 -13 -11 -14 -10 -9 4 5
14 24 23 24 12z m-399 -65 c-7 -5 -8 -17 -2 -39 6 -20 6 -32 0 -32 -5 0 -9 5
-9 10 0 6 -11 16 -25 22 -14 6 -24 16 -22 22 2 6 -2 16 -10 21 -10 7 0 9 33 6
26 -2 42 -6 35 -10z m204 -22 c-4 -5 -12 -9 -18 -8 -9 0 -8 2 1 6 6 2 9 10 6
15 -4 7 -2 8 5 4 6 -4 9 -12 6 -17z m-5748 -41 c-3 -8 -6 -5 -6 6 -1 11 2 17
5 13 3 -3 4 -12 1 -19z m5313 -8 c0 -5 -5 -10 -11 -10 -5 0 -7 5 -4 10 3 6 8
10 11 10 2 0 4 -4 4 -10z m-264 -143 c4 -4 0 -7 -9 -7 -9 0 -18 4 -21 9 -7 10
20 9 30 -2z m210 -99 c4 -6 3 -8 -4 -4 -6 3 -15 -2 -21 -11 -5 -10 -13 -15
-16 -11 -7 7 14 37 27 38 4 0 10 -5 14 -12z m-2771 -318 c3 -6 -1 -7 -9 -4
-18 7 -21 14 -7 14 6 0 13 -4 16 -10z m205 -26 c0 -2 -7 -4 -15 -4 -8 0 -15 4
-15 10 0 5 7 7 15 4 8 -4 15 -8 15 -10z m-2660 -89 c6 3 10 1 10 -4 0 -16 -23
-13 -46 5 -18 14 -18 15 4 4 12 -6 27 -8 32 -5z m2053 -69 c6 4 5 -1 -4 -10
-14 -15 -19 -16 -38 -4 -15 9 -24 10 -29 2 -11 -16 -45 -27 -36 -11 19 32 25
35 60 26 19 -6 40 -7 47 -3z"/>
<path d="M5658 7253 c7 -3 16 -2 19 1 4 3 -2 6 -13 5 -11 0 -14 -3 -6 -6z"/>
<path d="M6058 7133 c7 -3 16 -2 19 1 4 3 -2 6 -13 5 -11 0 -14 -3 -6 -6z"/>
<path d="M6888 7123 c7 -3 16 -2 19 1 4 3 -2 6 -13 5 -11 0 -14 -3 -6 -6z"/>
<path d="M6505 6833 c-11 -3 -24 -9 -29 -14 -5 -5 5 -4 24 1 51 15 55 25 5 13z"/>
<path d="M5128 7483 c7 -3 16 -2 19 1 4 3 -2 6 -13 5 -11 0 -14 -3 -6 -6z"/>
<path d="M7958 7373 c7 -3 16 -2 19 1 4 3 -2 6 -13 5 -11 0 -14 -3 -6 -6z"/>
<path d="M3400 7361 c0 -10 19 -25 25 -20 1 2 -3 10 -11 17 -8 7 -14 8 -14 3z"/>
<path d="M7678 7343 c7 -3 16 -2 19 1 4 3 -2 6 -13 5 -11 0 -14 -3 -6 -6z"/>
<path d="M4095 7320 c-4 -6 -11 -7 -17 -4 -7 4 -8 2 -4 -4 11 -18 56 -15 56 3
0 17 -25 20 -35 5z"/>
<path d="M4160 7310 c0 -5 5 -10 11 -10 5 0 7 5 4 10 -3 6 -8 10 -11 10 -2 0
-4 -4 -4 -10z"/>
<path d="M7535 7310 c-3 -5 -2 -10 4 -10 5 0 13 5 16 10 3 6 2 10 -4 10 -5 0
-13 -4 -16 -10z"/>
<path d="M7575 7310 c-3 -5 -1 -10 4 -10 6 0 11 5 11 10 0 6 -2 10 -4 10 -3 0
-8 -4 -11 -10z"/>
<path d="M7021 7296 c-11 -13 -11 -20 -3 -28 15 -15 24 -5 20 23 -3 21 -4 21
-17 5z"/>
<path d="M7060 7290 c0 -13 7 -20 20 -20 13 0 20 7 20 20 0 13 -7 20 -20 20
-13 0 -20 -7 -20 -20z"/>
<path d="M7458 7303 c7 -3 16 -2 19 1 4 3 -2 6 -13 5 -11 0 -14 -3 -6 -6z"/>
<path d="M7120 7290 c0 -5 9 -10 21 -10 11 0 17 5 14 10 -3 6 -13 10 -21 10
-8 0 -14 -4 -14 -10z"/>
<path d="M6540 7260 c0 -5 5 -10 10 -10 6 0 10 5 10 10 0 6 -4 10 -10 10 -5 0
-10 -4 -10 -10z"/>
<path d="M7768 7253 c7 -3 16 -2 19 1 4 3 -2 6 -13 5 -11 0 -14 -3 -6 -6z"/>
<path d="M7698 7183 c12 -2 30 -2 40 0 9 3 -1 5 -23 4 -22 0 -30 -2 -17 -4z"/>
<path d="M4305 7173 c11 -2 29 -9 41 -14 26 -13 76 -8 82 9 3 9 -15 12 -70 11
-40 -1 -64 -3 -53 -6z"/>
<path d="M4080 7140 c0 -6 7 -10 15 -10 8 0 15 2 15 4 0 2 -7 6 -15 10 -8 3
-15 1 -15 -4z"/>
<path d="M3835 7110 c3 -5 -2 -10 -12 -10 -15 0 -15 -2 -3 -10 9 -5 19 -5 27
2 14 11 9 28 -8 28 -6 0 -7 -4 -4 -10z"/>
<path d="M4350 7098 c-25 -11 -47 -23 -50 -27 -3 -3 -19 -14 -36 -23 -31 -17
-32 -17 -46 4 -11 16 -20 19 -34 14 -19 -7 -19 -8 1 -21 11 -8 25 -19 32 -25
16 -13 19 -13 35 3 7 6 38 25 68 41 101 54 120 75 30 34z"/>
<path d="M3570 7100 c0 -5 7 -10 15 -10 8 0 15 5 15 10 0 6 -7 10 -15 10 -8 0
-15 -4 -15 -10z"/>
<path d="M3538 7079 c-24 -13 -23 -28 1 -22 16 4 19 0 18 -29 -2 -26 -6 -32
-20 -30 -10 2 -34 -7 -53 -18 -26 -16 -33 -27 -29 -41 5 -16 1 -18 -29 -15
-20 1 -36 -1 -36 -6 0 -4 -6 -8 -14 -8 -8 0 -17 -4 -20 -9 -4 -5 11 -5 35 0
22 5 45 7 50 3 5 -3 36 8 69 25 33 17 66 31 75 31 12 0 15 6 10 19 -3 11 -1
22 4 26 7 4 8 0 4 -11 -5 -13 -2 -15 18 -9 13 4 30 13 38 19 11 8 15 8 18 0 6
-19 44 -3 54 23 6 15 20 26 40 30 27 5 29 7 13 16 -13 7 -19 7 -22 -2 -3 -9
-7 -9 -17 -1 -10 9 -20 4 -42 -19 -19 -19 -33 -27 -42 -22 -11 7 -11 9 0 13 8
3 11 9 7 13 -4 4 -21 3 -37 -3 -28 -10 -31 -9 -31 9 0 10 -4 19 -9 19 -5 0
-15 2 -23 5 -7 2 -21 0 -30 -6z"/>
<path d="M4107 7074 c-4 -4 -7 -11 -7 -16 0 -13 50 -6 53 7 2 12 -36 19 -46 9z"/>
<path d="M4477 6986 c-4 -10 -1 -13 8 -9 8 3 12 9 9 14 -7 12 -11 11 -17 -5z"/>
<path d="M2738 6983 c6 -2 18 -2 25 0 6 3 1 5 -13 5 -14 0 -19 -2 -12 -5z"/>
<path d="M4155 6980 c-3 -6 1 -7 9 -4 18 7 21 14 7 14 -6 0 -13 -4 -16 -10z"/>
<path d="M4328 6933 c6 -2 18 -2 25 0 6 3 1 5 -13 5 -14 0 -19 -2 -12 -5z"/>
<path d="M3300 6916 c0 -2 9 -6 20 -9 11 -3 20 -1 20 4 0 5 -9 9 -20 9 -11 0
-20 -2 -20 -4z"/>
<path d="M3740 6840 c-23 -7 -23 -8 -3 -9 12 -1 25 4 28 9 3 6 5 10 3 9 -2 -1
-14 -5 -28 -9z"/>
<path d="M3885 6840 c-3 -5 -2 -10 4 -10 5 0 13 5 16 10 3 6 2 10 -4 10 -5 0
-13 -4 -16 -10z"/>
<path d="M3810 6831 c0 -5 -8 -12 -17 -14 -15 -4 -15 -5 -2 -6 9 0 22 6 29 14
9 10 9 15 1 15 -6 0 -11 -4 -11 -9z"/>
</g>
</svg>
